/* XPM */
static char *torch_hd_7[] = {
"64 64 35 1",
"  c None",
"b c #211D1B",
"c c #171619",
"d c #443715",
"e c #3D3314",
"f c #895F23",
"g c #2D2911",
"h c #483412",
"i c #B8AE4F",
"j c #D8CA5C",
"k c #CCB954",
"l c #E0BC50",
"m c #CBAB4A",
"n c #B28E36",
"o c #F8E96A",
"p c #F2D35C",
"q c #EBC856",
"r c #C99936",
"s c #EADB64",
"t c #FFF06E",
"u c #EBDC64",
"v c #EED55C",
"w c #F5D055",
"x c #2F250E",
"y c #E7C654",
"z c #CEA53D",
"A c #CFAC43",
"B c #D3BA50",
"C c #C1A443",
"D c #C89B3B",
"E c #271F0C",
"F c #BF9C3C",
"G c #D2B047",
"H c #251E0C",
"I c #27211C",
"                                                                ",
"                                                                ",
"                                                                ",
"                                                                ",
"                                                                ",
"                          bbb                                   ",
"                      bbbcc ccccccccccccb                       ",
"                      b ddefeeeeegeeeddhcb                      ",
"                      cdijklkjjjkmkjjjjnhc                      ",
"                      cejoopooooqqqoooorhc                      ",
"                      cejosqsotouquottorhc                      ",
"                      cejoqqqottoooooovrhc                      ",
"                      cejuqquoootouquowrxc                      ",
"                      cgjqqqouquooqqqowrxc                      ",
"                      cgjuluuqqqoouquovrxc                      ",
"                      cgjoyuqpquotooooozxc                      ",
"                      cgjovqqquotoootooAxc                      ",
"                      cxBoouquotoopoooyCxc                      ",
"                      cgjooooootuqppoqqDEc                      ",
"                      cgBuquopooqpqoouyFxc                      ",
"                      cxryqqpppouquopouAxc                      ",
"                      cxzvquupoooooppqvzxc                      ",
"                      cxzouuquuquotopuoAxc                      ",
"                      cxzvqqppppqooooooGxc                      ",
"                      cgBqqqppppspottooAHc                      ",
"                      cgjuquoopupppottoBHc                      ",
"                      cgjoootoooopotttoBxc                      ",
"                      cgjottttttoootttojxc                      ",
"                      cgjottttttttttttojgc                      ",
"                      cgjottttttttttttojgc                      ",
"                      cxBottttttttttttojgc                      ",
"                      cgjottttttttttttojgc                      ",
"                      cgjottttttttttttojgc                      ",
"                      cgjottttttttttttojgc                      ",
"                      cgjoooooooooooooojgc                      ",
"                      cxijjjjjjjjjjjjjjixc                      ",
"                      ccxggggggggggggggxcc                      ",
"                       cccccccccccccccccc                       ",
"                                                                ",
"                                                                ",
"                                                                ",
"                                                                ",
"                                                                ",
"                                                                ",
"                                                                ",
"                                                                ",
"                                                                ",
"                                                                ",
"                                                                ",
"                   III                                          ",
"                     IIIb               bIII                    ",
"                        IIII         IIII                       ",
"                   cc      IIIIIIIIIII      c                   ",
"                    ccc                   ccc                   ",
"                      ccccc           ccccc                     ",
"                          ccccccccccccc                         ",
"                                                                ",
"                                                                ",
"                                                                ",
"                                                                ",
"                                                                ",
"                                                                ",
"                                                                ",
"                                                                "

};
