/* XPM */
static char *torch_hd_4[] = {
"64 64 44 1",
"  c None",
"b c #221D1B",
"c c #171619",
"d c #493915",
"e c #3B2F12",
"f c #403213",
"g c #4F4018",
"h c #A39743",
"i c #D2A946",
"j c #C7B652",
"k c #D9CB5D",
"l c #BAAE4F",
"m c #F9C954",
"n c #DCB74D",
"o c #E8D963",
"p c #FCEA6A",
"q c #F5E669",
"r c #E9C555",
"s c #FFF06E",
"t c #EFD15B",
"u c #3D3214",
"v c #D3B74C",
"w c #D0AA42",
"x c #D48A2A",
"y c #F8D75A",
"z c #BD7523",
"A c #EACE58",
"B c #2F250E",
"C c #F1C249",
"D c #CE6717",
"E c #DFA136",
"F c #EFB943",
"G c #D7C153",
"H c #E9BE50",
"I c #BB9C3E",
"J c #B3641B",
"K c #E29830",
"L c #9A4C14",
"M c #D36617",
"N c #A64910",
"O c #B45B15",
"P c #D57720",
"Q c #B8691E",
"R c #27211C",
"                                                                ",
"                                                                ",
"                                                                ",
"                                                                ",
"                                                                ",
"                                                                ",
"                       bbcccccccccccccccb                       ",
"                      bcdefddddddddddggdcb                      ",
"                      cdhiijkkkkkkkkkkkldc                      ",
"                      ceimmnopppqppppppkdc                      ",
"                      ceimmrqssoroqqqqpkdc                      ",
"                      cdjrmrqpqrmrtrospkdc                      ",
"                      cdjorosssortrmrqpkuc                      ",
"                      cuvpqqsssqqqorospkuc                      ",
"                      cdwpssssssssqqqspkuc                      ",
"                      cdxypssssssssssspkuc                      ",
"                      cdzApssssssssssspkBc                      ",
"                      cBzCpspqqppqpssspkBc                      ",
"                      ccDEpsorrooropsspkBc                      ",
"                      c zFpqrmmmrmrosspkBc                      ",
"                      cBEypsormtrmmrqspkBc                      ",
"                      cBwpssqrtrormroppkBc                      ",
"                      cBvpsssoroqormrArjBc                      ",
"                      cBGpssspqpqttrmmrnBc                      ",
"                      cBvpsssssssqtAHAnI c                      ",
"                      cBvpssssssssonmnAw c                      ",
"                      cBEypsssssssponoAv c                      ",
"                      cBxCppssssssspqppvBc                      ",
"                      c JKFypssssssssspvBc                      ",
"                      ccLMxFppssssssspyvBc                      ",
"                       ccNDECppsssssppywBc                      ",
"                        c OPKFAppspppyCEBc                      ",
"                        ccNDPEFypppyAFExBc                      ",
"                         ccNDPKECACFEExz c                      ",
"                          c MDPxKKExxxPJBc                      ",
"                          ccNOOJQJOOOOJL c                      ",
"                           ccc   B cc  ccc                      ",
"                             ccccccccccc                        ",
"                                                                ",
"                                                                ",
"                                                                ",
"                                                                ",
"                                                                ",
"                                                                ",
"                                                                ",
"                                                                ",
"                                                                ",
"                                                                ",
"                                                                ",
"                   RRR                                          ",
"                     RRRb               bRRR                    ",
"                        RRRR         RRRR                       ",
"                   cc      RRRRRRRRRRR      c                   ",
"                    ccc                   ccc                   ",
"                      ccccc           ccccc                     ",
"                          ccccccccccccc                         ",
"                                                                ",
"                                                                ",
"                                                                ",
"                                                                ",
"                                                                ",
"                                                                ",
"                                                                ",
"                                                                "

};
