/* XPM */
static char *torch_hd_5[] = {
"64 64 36 1",
"  c None",
"b c #211D1B",
"c c #171619",
"d c #473715",
"e c #443715",
"f c #3E3414",
"g c #B7A84A",
"h c #D7C85B",
"i c #D1B248",
"j c #F6D659",
"k c #EDDA62",
"l c #F3D75E",
"m c #F8E86A",
"n c #EDCB57",
"o c #3F3012",
"p c #F2C74D",
"q c #EBCE59",
"r c #F6D35B",
"s c #D2B94E",
"t c #FFF06E",
"u c #2D2811",
"v c #2F260E",
"w c #EFBD46",
"x c #FEDB60",
"y c #CD9C37",
"z c #EEB942",
"A c #CE872A",
"B c #E9A938",
"C c #BB7423",
"D c #D2902D",
"E c #B4661A",
"F c #B15F19",
"G c #B4973C",
"H c #CFA63F",
"I c #995216",
"J c #27211C",
"                                                                ",
"                                                                ",
"                                                                ",
"                                                                ",
"                                                                ",
"                                                                ",
"                       bbcccccccccccccccbb                      ",
"                      bcdeeefffffffffeee b                      ",
"                      cdghhhhhhhhhhhhhhgec                      ",
"                      ceijklmmmknkmmknkhfc                      ",
"                      coipqrlmmnnnnknnnhfc                      ",
"                      cfslkrkmmknnnnknkhfc                      ",
"                      cfhmnrnmtmmknkmmmhuc                      ",
"                      cuhmkrkmtttmmknrkhuc                      ",
"                      cuhmlrkmttttmnrrqsvc                      ",
"                      cuhknrmtttttmknrkivc                      ",
"                      cuhnnnmttttttmmmmivc                      ",
"                      cuhknrmtttmmmtttmsvc                      ",
"                      cuhmrrrmttmnmtttmhvc                      ",
"                      cuhmmrmttmnrnmttmhuc                      ",
"                      cuhpmmmttmrrmtttmhvc                      ",
"                      cuhwkmttmnrrmtttmhvc                      ",
"                      cuhpmmtttmnmttttmhuc                      ",
"                      cuhmmkmttmmmttttmhuc                      ",
"                      cuhmkkkmmknkmmmtmhuc                      ",
"                      cuhmmkmmmnnnrkkmmhuc                      ",
"                      cuhmtmtmknrrrlrkmhuc                      ",
"                      cuhmtttmnrxklkkmmhuc                      ",
"                      cuhmttttknkmmmmtmhuc                      ",
"                      cuhmttttmmmttttmmivc                      ",
"                      cuhmtttttttttttmpyvc                      ",
"                      cvhmttttttttttmjzA c                      ",
"                      cvsmtttttttttmlpBC c                      ",
"                      cvsmttttttttmlpBDE c                      ",
"                      cvimmmmmmmmmmjpBAF c                      ",
"                      cvGhhhhhhhhhsiHDCIvc                      ",
"                      ccvuuuuvvvvvvvv vvcc                      ",
"                       cccccccccccccccccc                       ",
"                                                                ",
"                                                                ",
"                                                                ",
"                                                                ",
"                                                                ",
"                                                                ",
"                                                                ",
"                                                                ",
"                                                                ",
"                                                                ",
"                                                                ",
"                   JJJ                                          ",
"                     JJJb               bJJJ                    ",
"                        JJJJ         JJJJ                       ",
"                   cc      JJJJJJJJJJJ      c                   ",
"                    ccc                   ccc                   ",
"                      ccccc           ccccc                     ",
"                          ccccccccccccc                         ",
"                                                                ",
"                                                                ",
"                                                                ",
"                                                                ",
"                                                                ",
"                                                                ",
"                                                                ",
"                                                                "

};
