/* XPM */
static char *torch_hd_6[] = {
"64 64 44 1",
"  c None",
"b c #211D1B",
"c c #171619",
"d c #423212",
"e c #3C3214",
"f c #A95114",
"g c #BC7B29",
"h c #B78D33",
"i c #D49C35",
"j c #DDB649",
"k c #D7C759",
"l c #CFAF47",
"m c #B76D1F",
"n c #B55B15",
"o c #CB6E1D",
"p c #E79933",
"q c #EABB48",
"r c #F0C54D",
"s c #F6D75D",
"t c #FAE868",
"u c #F1DB62",
"v c #EECA56",
"w c #EEB943",
"x c #B6681D",
"y c #442C0D",
"z c #E7A739",
"A c #D59532",
"B c #C76816",
"C c #CC8529",
"D c #C77A27",
"E c #E29830",
"F c #F6D255",
"G c #34230B",
"H c #C67624",
"I c #FFF06E",
"J c #A84612",
"K c #873F12",
"L c #D99B36",
"M c #993D11",
"N c #79340F",
"O c #2B2610",
"P c #251F0C",
"Q c #D98023",
"R c #27211C",
"                                                                ",
"                                                                ",
"                                                                ",
"                                                                ",
"                                                                ",
"                                                                ",
"                       bbbccccccccccccccb                       ",
"                      bc  d deeeeeeeedd cb                      ",
"                      c ffghijkkkkkkkklm c                      ",
"                      c nopqrsttuvuttuwx c                      ",
"                      cyxozstuttvvvttvAB c                      ",
"                      cymCrttsttuvusvvAm c                      ",
"                      cyDEsttFFtttsssjAmyc                      ",
"                      cGmpsttFFstttuurEByc                      ",
"                      cGxCrttssFttuusqCf c                      ",
"                      c nHqttttttItuszoJcc                      ",
"                      ccKHjtItttIIttrEoJc                       ",
"                      c DpLsttttttttrCBJc                       ",
"                      cGDEArtttstuvsjinMc                       ",
"                      ccNHCrussssvvvjpHMc                       ",
"                      ccJnCjssssssvuvLxfcc                      ",
"                      c noLvvsussssttqin c                      ",
"                      c BEqvuusssstItrzm c                      ",
"                      c xzsttuussstItFzm c                      ",
"                      c CrtIItutstIttswC c                      ",
"                      c iFtIIIttttItssrC c                      ",
"                      cGlstIIIIIIItusvri c                      ",
"                      cOjttIIIIIIIItssri c                      ",
"                      cOktIIIIIIIIItttslPc                      ",
"                      cOktttIIIIIIIIIItkOc                      ",
"                      cOkstttttIIIIIIItkOc                      ",
"                      cOkrFststttttttttkOc                      ",
"                      cOkiwFuFsttttsssFlOc                      ",
"                      cOjEzqrrrwwqrrrrwiGc                      ",
"                      cOlDQEEEiEEEEEEEEC c                      ",
"                      cGhBBBnxxxxxxxxxmxGc                      ",
"                      ccGGG           GGcc                      ",
"                       cccccccccccccccccc                       ",
"                                                                ",
"                                                                ",
"                                                                ",
"                                                                ",
"                                                                ",
"                                                                ",
"                                                                ",
"                                                                ",
"                                                                ",
"                                                                ",
"                                                                ",
"                   RRR                                          ",
"                     RRRb               bRRR                    ",
"                        RRRR         RRRR                       ",
"                   cc      RRRRRRRRRRR      c                   ",
"                    ccc                   ccc                   ",
"                      ccccc           ccccc                     ",
"                          ccccccccccccc                         ",
"                                                                ",
"                                                                ",
"                                                                ",
"                                                                ",
"                                                                ",
"                                                                ",
"                                                                ",
"                                                                "

};
